<svg version="1.2" xmlns="http://www.w3.org/2000/svg" viewBox="0 0 515 151">
  <style>
    .a { fill: #D8B45A; }
  </style>
  <path class="a" d="m422 136.2c12 11.3 25.3 2.2 31.2-10.6q-1.4 0-2.8 0c5.9 9.5 21.8 13.4 31.6 16.6 10.2 3.3 20.5 6.1 30.8 8.5q0.3-1.6 0.5-3.2-200.7 0-401.4 0-54.8 0-109.5 0 0.2 1.6 0.4 3.2c10.4-2.4 20.7-5.2 30.8-8.5 9.8-3.2 25.8-7.1 31.7-16.6q-1.4 0-2.8 0c5.8 12.8 19.2 21.9 31.1 10.6 1.6-1.4-0.7-3.7-2.2-2.3-10.6 9.9-21.3 0.6-26.1-9.9-0.6-1.2-2.3-0.9-2.8 0-2.8 4.5-8.9 7-13.6 9-6.8 3.1-14 5.4-21.1 7.6-8.5 2.6-17.2 5-25.9 6.9-1.8 0.4-1.3 3.2 0.5 3.2q200.7 0 401.4 0 54.7 0 109.5 0c1.8 0 2.2-2.8 0.4-3.2-8.7-1.9-17.3-4.3-25.9-6.9-6.9-2.1-13.8-4.4-20.4-7.3-4.8-2.1-11.3-4.6-14.2-9.3-0.6-0.9-2.3-1.2-2.8 0-4.8 10.5-15.5 19.9-26.1 9.9-1.5-1.4-3.8 0.9-2.3 2.3z"/>
  <path class="a" d="m266.9 105.9c10.7-15.2 4.3-43.5-7.4-56.5-0.5-0.6-1.7-0.6-2.2 0-12.8 13.7-19 39.7-8.3 56.1 1.2 1.8 4 0.2 2.8-1.6-5.1-7.9-5.5-17.9-3.9-27 0.8-4.8 2.2-9.6 4.2-14 0.8-1.8 1.8-3.7 2.9-5.4 1.7-2.6 1.9-5.1 4.2-3.4 6 4.5 8 18.3 8.9 25.1 0.9 8.3 1 17.9-4 25-1.2 1.7 1.6 3.3 2.8 1.7z"/>
  <path class="a" d="m255.3 132.1c-3.4-12.2-10.1-23.6-20.5-31.1-13.4-9.4-27.7-7.2-43.1-6.7-9.8 0.4-19.3-1.1-26.3-8.6-6.5-6.8-9.6-17.8-4.6-26.4 3.2-5.6 10.1-8.4 16.4-6.6 3.5 1.1 6.2 3.5 6.5 7.3 0.2 4.2-8.5 14.5-11.4 6.9-0.8-2-3.9-1.1-3.1 0.8 4.6 12.3 22.1-1.4 16.6-12.2-6.4-12.9-25.1-5.4-29.2 5.1-7.4 19 10.9 35.9 28.6 37 14.2 0.8 28.5-3.8 42 2.7 13 6.3 21.2 19.2 25 32.7 0.6 2 3.7 1.1 3.1-0.9z"/>
  <path class="a" d="m199.3 123.9c10-0.6 10.6 12 2 14.6-6.8 2-16.5-3.4-18.2-10-3-11.6 6.6-18.5 16.9-19.8 18.5-2.3 32.5 10.4 38.2 27.3 0.7 1.9 3.8 1.1 3.1-0.9-4.1-12.3-12.7-23.9-25.5-28.2-11-3.7-28.7-2.2-34.6 9.4-6.9 13.5 5.7 28.2 20.2 25.4 12.9-2.5 11.7-21.9-2.1-21-2.1 0.1-2.1 3.4 0 3.2z"/>
  <path class="a" d="m181.8 104.8c-11.3 6.9-24.7 2.1-36.8 1.5-8.2-0.3-15.6 2-18 10.6-2.2 8.2 1.1 17 10.4 17.7 7.1 0.6 11.4-8.8 4.2-12.1-1.9-0.8-3.5 2-1.6 2.8q-0.8 3.1-1.7 6.2-3.2 0.2-5.3-2.3c-2.7-2.3-3.5-4.4-3.4-8 0.1-4.2 2-8.3 5.8-10.3 4.8-2.5 11.4-1.3 16.6-0.7 10.6 1.3 21.8 3.3 31.4-2.6 1.8-1.1 0.1-3.9-1.6-2.8z"/>
  <path class="a" d="m168.6 98.1c-10.9 0.3-22.9-1.4-30.8-9.6-2.4-2.4-4.4-5.4-5.2-8.8-0.5-1.9-0.7-3.9-0.2-5.8 2.5-9.5 16.2-3.7 12 1.8-1.3 1.6 1.5 3.2 2.8 1.6 4.6-6.1-3.4-12.5-9.5-12.1-6.8 0.5-9.5 7.5-8.6 13.5 2.5 17.9 24.5 23.1 39.5 22.6 2 0 2-3.3 0-3.2z"/>
  <path class="a" d="m126.9 94.5c-8.3-8.8-22.4-3.3-30 3.6-0.7 0.6-0.7 1.7 0 2.3 7.1 6.6 21.5 12.2 29.5 4 1.5-1.5-0.8-3.8-2.3-2.3-6.6 6.8-19.1 1.4-24.9-4q0 1.2 0 2.3c6.2-5.7 18.5-11 25.4-3.6 1.4 1.5 3.7-0.8 2.3-2.3z"/>
  <path class="a" d="m263.4 133c3.8-13.5 12-26.4 25-32.7 14.4-6.9 29.6-1.2 44.6-2.9 17.5-2 34.3-20.8 25.2-38.7-5-9.9-23.7-15.2-28.5-2.1-2.3 6.1 1.1 13.7 7.2 16 4.7 1.8 9.8 0.3 9.6-5.3 0-2.1-3.2-2.1-3.2 0 0.1 3.8-5.7 2.4-7.3 1.1-2.1-1.7-3.6-4.5-3.7-7.3-0.2-3.6 1.6-6.4 4.8-7.9 6.1-2.9 13.6-0.2 17.2 5.2 5.7 8.6 2.6 20.2-4.1 27.3-7 7.5-16.4 9-26.3 8.6-14.9-0.5-29-2.7-42.1 6.1-10.9 7.4-18 19.1-21.5 31.7-0.6 2 2.6 2.9 3.1 0.9z"/>
  <path class="a" d="m316.3 120.7c-13.2-0.9-15.2 17.7-2.8 20.9 14.7 3.7 27.9-11.7 20.9-25.3-5.8-11.4-23-13.1-34-9.6-13 4.2-21.9 15.9-26.1 28.4-0.6 2 2.5 2.8 3.1 0.9 5.7-16.9 19.8-29.6 38.2-27.3 10.3 1.3 19.9 8.2 16.9 19.8-1.6 6.6-11.4 12-18.1 10-8.6-2.6-8-15.2 1.9-14.6 2.1 0.2 2.1-3.1 0-3.2z"/>
  <path class="a" d="m332.2 107.6c9.7 5.9 20.8 3.9 31.4 2.6 4.9-0.5 11-1.7 15.7 0.2 4.3 1.8 6.6 6.1 6.7 10.8 0.1 1.9-0.1 4.6-1.1 6.2q-2.3 3.6-6.1 3.9-4.5 1.5-3.1-6c1.9-0.8 0.2-3.6-1.7-2.8-6.7 3-3.4 12 3.3 12.2 9.9 0.3 13.5-9.5 11.3-17.8-2.2-8.2-9.2-10.8-17.1-10.6-12.5 0.3-26.1 5.6-37.6-1.5-1.8-1.1-3.4 1.7-1.7 2.8z"/>
  <path class="a" d="m391.1 96.8c6.9-7.4 19.1-2.1 25.4 3.6q0-1.1 0-2.3c-5.8 5.4-18.4 10.8-25 4-1.4-1.5-3.7 0.8-2.3 2.3 8 8.2 22.4 2.6 29.6-4 0.6-0.6 0.6-1.7 0-2.3-7.6-6.9-21.8-12.4-30-3.6-1.4 1.5 0.8 3.8 2.3 2.3z"/>
  <path class="a" d="m347.1 101.3c14.9 0.5 36.9-4.7 39.4-22.6 0.8-5.6-1.4-12.4-7.6-13.4-6.3-1.1-15.3 5.6-10.4 12 1.2 1.6 4.1 0 2.8-1.6-4.3-5.5 9.5-11.3 11.9-1.8 0.5 1.9 0.3 3.9-0.2 5.8-0.8 3.4-2.8 6.4-5.1 8.8-8 8.2-20 9.9-30.8 9.6-2.1-0.1-2.1 3.2 0 3.2z"/>
  <path class="a" d="m225.6 86.8c-6.1-16 12.7-30.2 21.7-41 10.4-12.4 14.1-27.6 13.9-43.6 0-2.1-3-2-3.2 0-2.2 16.3 1.2 30.8 10.9 44.1 9.1 12.6 23.8 23.7 22.3 40.9-0.2 2.1 3 2.1 3.2 0 1.3-14.1-7.9-24.8-16.5-34.9-12.8-14.9-19.3-30.3-16.7-50.1q-1.6 0-3.2 0c0.1 11-1.4 22-6.5 31.8-4 7.6-10.2 13.6-15.8 19.9-8.1 9-18.2 20.9-13.3 33.7 0.8 2 3.9 1.1 3.2-0.8z"/>
  <path class="a" d="m257.8 89.6c-5.2 0-5.2 8.1 0 8.1 5.2 0 5.2-8.1 0-8.1z"/>
  <path class="a" d="m257.8 78.3c-3.1 0-3.1 4.9 0 4.9 3.1 0 3.1-4.9 0-4.9z"/>
  <path class="a" d="m257.8 68.2c-2.1 0-2.1 3.2 0 3.2 2.1 0 2.1-3.2 0-3.2z"/>
</svg>
